HIERARCHY
ROOT	Character1_Hips
{
	OFFSET	0.000	0.000	0.000
	CHANNELS	6	Xposition	Yposition	Zposition	Yrotation	Xrotation	Zrotation
	JOINT	Character1_LeftUpLeg
	{
		OFFSET	7.642	0.000	-0.000
		CHANNELS	3	Yrotation	Xrotation	Zrotation
		JOINT	Character1_LeftLeg
		{
			OFFSET	-0.000	-40.759	0.000
			CHANNELS	3	Yrotation	Xrotation	Zrotation
			JOINT	Character1_LeftFoot
			{
				OFFSET	0.059	-40.854	0.000
				CHANNELS	3	Yrotation	Xrotation	Zrotation
				End Site
				{
					OFFSET	-0.000	-5.879	12.409
				}
			}
		}
	}
	JOINT	Character1_RightUpLeg
	{
		OFFSET	-7.642	0.000	-0.000
		CHANNELS	3	Yrotation	Xrotation	Zrotation
		JOINT	Character1_RightLeg
		{
			OFFSET	0.000	-40.759	0.000
			CHANNELS	3	Yrotation	Xrotation	Zrotation
			JOINT	Character1_RightFoot
			{
				OFFSET	-0.059	-40.854	0.000
				CHANNELS	3	Yrotation	Xrotation	Zrotation
				End Site
				{
					OFFSET	0.001	-5.879	12.409
				}
			}
		}
	}
	JOINT	Character1_Spine
	{
		OFFSET	0.000	8.005	-3.725
		CHANNELS	3	Yrotation	Xrotation	Zrotation
		JOINT	Character1_Spine1
		{
			OFFSET	-0.056	15.168	0.251
			CHANNELS	3	Yrotation	Xrotation	Zrotation
			JOINT	Character1_Spine2
			{
				OFFSET	-0.056	15.168	0.251
				CHANNELS	3	Yrotation	Xrotation	Zrotation
				JOINT	Character1_LeftShoulder
				{
					OFFSET	6.586	7.784	2.058
					CHANNELS	3	Yrotation	Xrotation	Zrotation
					JOINT	Character1_LeftArm
					{
						OFFSET	12.411	-0.000	-3.325
						CHANNELS	3	Yrotation	Xrotation	Zrotation
						JOINT	Character1_LeftForeArm
						{
							OFFSET	24.625	-0.000	0.000
							CHANNELS	3	Yrotation	Xrotation	Zrotation
							JOINT	Character1_LeftHand
							{
								OFFSET	27.116	-0.000	-0.000
								CHANNELS	3	Yrotation	Xrotation	Zrotation
								JOINT	Character1_LeftHandIndex1
								{
									OFFSET	7.694	-0.099	2.444
									CHANNELS	3	Yrotation	Xrotation	Zrotation
									JOINT	Character1_LeftHandIndex2
									{
										OFFSET	4.425	0.000	0.000
										CHANNELS	3	Yrotation	Xrotation	Zrotation
										End Site
										{
											OFFSET	2.723	0.000	-0.000
										}
									}
								}
								JOINT	Character1_LeftHandMiddle1
								{
									OFFSET	7.779	-0.099	0.521
									CHANNELS	3	Yrotation	Xrotation	Zrotation
									JOINT	Character1_LeftHandMiddle2
									{
										OFFSET	4.496	0.000	-0.000
										CHANNELS	3	Yrotation	Xrotation	Zrotation
										End Site
										{
											OFFSET	2.965	0.000	-0.000
										}
									}
								}
								JOINT	Character1_LeftHandPinky1
								{
									OFFSET	6.689	-0.099	-2.991
									CHANNELS	3	Yrotation	Xrotation	Zrotation
									JOINT	Character1_LeftHandPinky2
									{
										OFFSET	3.598	-0.000	-0.000
										CHANNELS	3	Yrotation	Xrotation	Zrotation
										End Site
										{
											OFFSET	2.262	-0.000	0.000
										}
									}
								}
								JOINT	Character1_LeftHandRing1
								{
									OFFSET	7.440	-0.099	-1.373
									CHANNELS	3	Yrotation	Xrotation	Zrotation
									JOINT	Character1_LeftHandRing2
									{
										OFFSET	4.243	0.000	-0.000
										CHANNELS	3	Yrotation	Xrotation	Zrotation
										End Site
										{
											OFFSET	2.737	-0.000	-0.000
										}
									}
								}
								JOINT	Character1_LeftHandThumb1
								{
									OFFSET	1.988	-0.099	2.664
									CHANNELS	3	Yrotation	Xrotation	Zrotation
									JOINT	Character1_LeftHandThumb2
									{
										OFFSET	3.554	-0.758	1.001
										CHANNELS	3	Yrotation	Xrotation	Zrotation
										End Site
										{
											OFFSET	2.731	-0.463	-0.717
										}
									}
								}
							}
						}
					}
				}
				JOINT	Character1_Neck
				{
					OFFSET	-0.056	15.168	0.251
					CHANNELS	3	Yrotation	Xrotation	Zrotation
					End Site
					{
						OFFSET	-0.000	9.862	0.000
					}
				}
				JOINT	Character1_RightShoulder
				{
					OFFSET	-6.699	7.784	2.058
					CHANNELS	3	Yrotation	Xrotation	Zrotation
					JOINT	Character1_RightArm
					{
						OFFSET	-12.411	-0.001	-3.325
						CHANNELS	3	Yrotation	Xrotation	Zrotation
						JOINT	Character1_RightForeArm
						{
							OFFSET	-24.625	-0.000	0.000
							CHANNELS	3	Yrotation	Xrotation	Zrotation
							JOINT	Character1_RightHand
							{
								OFFSET	-27.116	-0.000	-0.000
								CHANNELS	3	Yrotation	Xrotation	Zrotation
								JOINT	Character1_RightHandIndex1
								{
									OFFSET	-7.694	-0.099	2.444
									CHANNELS	3	Yrotation	Xrotation	Zrotation
									JOINT	Character1_RightHandIndex2
									{
										OFFSET	-4.423	0.000	0.154
										CHANNELS	3	Yrotation	Xrotation	Zrotation
										End Site
										{
											OFFSET	-2.721	-0.000	0.095
										}
									}
								}
								JOINT	Character1_RightHandMiddle1
								{
									OFFSET	-7.779	-0.099	0.521
									CHANNELS	3	Yrotation	Xrotation	Zrotation
									JOINT	Character1_RightHandMiddle2
									{
										OFFSET	-4.493	0.000	0.157
										CHANNELS	3	Yrotation	Xrotation	Zrotation
										End Site
										{
											OFFSET	-2.964	0.000	0.103
										}
									}
								}
								JOINT	Character1_RightHandPinky1
								{
									OFFSET	-6.689	-0.099	-2.991
									CHANNELS	3	Yrotation	Xrotation	Zrotation
									JOINT	Character1_RightHandPinky2
									{
										OFFSET	-3.596	0.000	0.126
										CHANNELS	3	Yrotation	Xrotation	Zrotation
										End Site
										{
											OFFSET	-2.260	0.000	0.079
										}
									}
								}
								JOINT	Character1_RightHandRing1
								{
									OFFSET	-7.440	-0.099	-1.373
									CHANNELS	3	Yrotation	Xrotation	Zrotation
									JOINT	Character1_RightHandRing2
									{
										OFFSET	-4.241	-0.000	0.148
										CHANNELS	3	Yrotation	Xrotation	Zrotation
										End Site
										{
											OFFSET	-2.735	-0.000	0.096
										}
									}
								}
								JOINT	Character1_RightHandThumb1
								{
									OFFSET	-1.988	-0.099	2.664
									CHANNELS	3	Yrotation	Xrotation	Zrotation
									JOINT	Character1_RightHandThumb2
									{
										OFFSET	-3.554	-0.758	1.001
										CHANNELS	3	Yrotation	Xrotation	Zrotation
										End Site
										{
											OFFSET	-2.731	-0.463	-0.717
										}
									}
								}
							}
						}
					}
				}
			}
		}
	}
}
MOTION
Frames:	10
Frame Time:	0.010
10.023	83.772	-2.975	-386.417	-9.458	-360.963	29.811	359.428	-354.284	-0.000	37.481	0.000	7.613	-27.327	0.727	-5.163	349.185	-374.389	-360.000	34.990	-0.000	13.976	348.556	9.599	-3.158	1.099	-360.844	-6.345	2.153	-361.752	-0.000	0.000	-0.000	10.086	359.642	-362.872	1.995	-15.457	-67.110	-69.888	-33.288	-410.272	-356.166	357.317	-381.134	-357.778	5.170	-45.728	0.000	0.000	-48.574	-351.298	4.664	-56.339	-0.496	-1.620	-56.825	-337.395	357.957	-72.822	0.000	-0.000	-65.943	-345.771	360.344	-61.350	0.578	1.895	-59.332	-1.494	26.566	-15.068	-2.362	19.262	-350.129	12.203	364.434	-366.700	-347.196	364.015	-366.035	-348.337	326.491	-305.246	-293.697	314.524	47.027	-365.184	5.901	-1.126	5.271	4.655	-290.689	-358.575	-1.948	-291.771	-7.312	5.260	-284.169	-359.298	0.918	-284.116	-25.124	366.882	-273.906	-357.468	6.564	-280.283	-17.398	365.582	-277.592	-358.212	4.676	-279.335	-351.937	45.006	-352.967	-350.349	359.212	-355.962	
9.987	83.750	-2.976	-386.355	-9.518	-360.925	29.724	359.464	-354.275	0.000	37.557	0.000	7.638	-27.376	0.714	-5.213	349.257	-374.417	-360.000	35.027	0.000	13.945	348.380	9.471	-3.139	1.104	-360.849	-6.309	2.163	-361.762	0.000	-0.000	-0.000	10.164	359.633	-362.856	2.302	-15.139	-66.877	-69.303	-32.792	-409.941	-356.166	357.382	-380.995	-357.761	5.159	-45.584	0.000	0.000	-48.316	-351.442	4.561	-56.073	-0.490	-1.562	-56.520	-337.550	357.815	-72.371	0.000	-0.000	-65.486	-345.827	360.292	-61.020	0.571	1.826	-58.961	-1.588	26.573	-15.183	-2.649	19.291	-350.430	12.345	364.401	-366.753	-347.221	364.024	-366.152	-348.226	326.688	-305.585	-294.140	314.928	46.686	-365.993	5.060	-0.718	5.274	4.622	-291.045	-358.562	-1.850	-292.081	-7.234	5.256	-284.676	-359.271	0.811	-284.694	-25.250	366.679	-274.693	-357.554	6.594	-281.040	-17.367	365.492	-278.153	-358.278	4.582	-279.991	-352.085	45.034	-352.996	-350.679	359.180	-355.731	
9.954	83.734	-2.982	-386.292	-9.582	-360.886	29.647	359.509	-354.263	-0.000	37.610	0.000	7.655	-27.386	0.690	-5.252	349.340	-374.442	-360.000	35.049	0.000	13.899	348.230	9.359	-3.123	1.109	-360.854	-6.276	2.174	-361.771	0.000	0.000	0.000	10.241	359.612	-362.845	2.627	-14.847	-66.641	-68.691	-32.319	-409.596	-355.759	357.360	-380.650	-357.734	5.141	-45.349	0.000	0.000	-47.935	-351.659	4.410	-55.691	-0.482	-1.482	-56.084	-337.793	357.598	-71.716	0.000	-0.000	-64.823	-345.931	360.205	-60.545	0.560	1.731	-58.427	-1.744	26.572	-15.332	-3.116	19.354	-350.794	12.486	364.365	-366.810	-347.239	364.033	-366.270	-348.115	326.897	-305.905	-294.541	315.315	46.253	-366.458	4.413	-0.284	5.296	4.580	-291.358	-358.553	-1.756	-292.350	-7.164	5.252	-285.114	-359.247	0.720	-285.193	-25.331	366.489	-275.346	-357.630	6.604	-281.675	-17.338	365.406	-278.633	-358.332	4.503	-280.542	-352.205	45.059	-353.009	-350.949	359.149	-355.513	
9.919	83.726	-2.985	-386.228	-9.643	-360.845	29.581	359.572	-354.250	-0.000	37.623	0.000	7.654	-27.400	0.680	-5.285	349.431	-374.469	-360.000	35.055	0.000	13.844	348.102	9.266	-3.108	1.113	-360.859	-6.246	2.181	-361.781	-0.000	-0.000	0.000	10.319	359.586	-362.834	2.971	-14.580	-66.402	-68.080	-31.859	-409.227	-355.676	357.334	-380.482	-357.714	5.127	-45.170	0.000	0.000	-47.641	-351.846	4.287	-55.427	-0.477	-1.433	-55.770	-338.007	357.413	-71.231	0.000	-0.000	-64.332	-346.058	360.110	-60.205	0.555	1.672	-58.042	-1.904	26.558	-15.433	-3.579	19.437	-351.008	12.622	364.327	-366.862	-347.246	364.056	-366.384	-348.025	327.084	-306.201	-294.939	315.703	45.785	-367.284	3.584	0.413	5.303	4.533	-291.847	-358.541	-1.608	-292.769	-7.073	5.254	-285.782	-359.209	0.591	-285.943	-25.409	366.187	-276.308	-357.757	6.603	-282.646	-17.307	365.273	-279.364	-358.407	4.393	-281.330	-352.376	45.097	-353.014	-351.336	359.099	-355.161	
9.880	83.724	-2.992	-386.162	-9.691	-360.807	29.490	359.633	-354.246	-0.000	37.615	0.000	7.681	-27.381	0.648	-5.318	349.511	-374.489	-360.000	35.055	0.000	13.793	348.002	9.185	-3.093	1.113	-360.862	-6.216	2.181	-361.787	-0.000	-0.000	0.000	10.395	359.565	-362.821	3.322	-14.352	-66.164	-67.478	-31.395	-408.827	-355.141	357.121	-380.161	-357.682	5.105	-44.890	0.000	0.000	-47.228	-352.099	4.124	-55.092	-0.473	-1.379	-55.365	-338.334	357.138	-70.643	0.000	-0.000	-63.739	-346.271	359.961	-59.780	0.550	1.607	-57.561	-2.170	26.520	-15.544	-4.337	19.597	-351.184	12.750	364.286	-366.918	-347.257	364.081	-366.494	-347.948	327.246	-306.480	-295.374	316.085	45.318	-367.645	2.971	0.889	5.291	4.509	-292.231	-358.534	-1.490	-293.098	-7.015	5.268	-286.303	-359.178	0.489	-286.530	-25.472	365.963	-277.064	-357.858	6.592	-283.414	-17.303	365.180	-279.943	-358.461	4.309	-281.946	-352.513	45.128	-353.018	-351.648	359.060	-354.875	
9.839	83.726	-2.995	-386.096	-9.729	-360.773	29.419	359.692	-354.235	-0.000	37.588	0.000	7.682	-27.367	0.625	-5.336	349.584	-374.502	-360.000	35.060	-0.000	13.729	347.917	9.121	-3.077	1.113	-360.862	-6.185	2.182	-361.786	0.000	-0.000	-0.000	10.466	359.525	-362.812	3.679	-14.133	-65.905	-67.177	-31.285	-408.942	-354.407	356.824	-379.926	-357.652	5.084	-44.626	0.000	0.000	-46.851	-352.279	4.006	-54.816	-0.474	-1.348	-55.030	-338.623	356.901	-70.201	0.000	-0.000	-63.298	-346.454	359.835	-59.422	0.550	1.569	-57.164	-2.387	26.477	-15.589	-4.944	19.747	-351.187	12.876	364.240	-366.983	-347.268	364.082	-366.609	-347.895	327.390	-306.738	-295.870	316.463	44.888	-368.231	2.225	1.392	5.203	4.520	-292.793	-358.527	-1.315	-293.575	-6.986	5.334	-287.060	-359.133	0.345	-287.377	-25.593	365.689	-278.149	-358.004	6.555	-284.524	-17.362	365.087	-280.779	-358.531	4.197	-282.814	-352.689	45.170	-353.014	-352.047	359.008	-354.485	
9.796	83.730	-3.003	-386.028	-9.759	-360.745	29.296	359.746	-354.239	-0.000	37.554	0.000	7.742	-27.346	0.586	-5.332	349.650	-374.503	-360.000	35.067	-0.000	13.650	347.850	9.065	-3.059	1.115	-360.859	-6.149	2.186	-361.780	0.000	-0.000	-0.000	10.525	359.476	-362.798	4.033	-13.939	-65.628	-66.593	-30.830	-408.537	-353.659	356.307	-379.920	-357.595	5.044	-44.121	0.000	0.000	-46.225	-352.437	3.885	-54.344	-0.464	-1.274	-54.514	-338.909	356.669	-69.546	0.000	-0.000	-62.647	-346.598	359.726	-58.894	0.540	1.482	-56.585	-2.680	26.405	-15.594	-5.747	19.976	-351.015	12.992	364.190	-367.048	-347.285	364.066	-366.725	-347.871	327.505	-306.991	-296.443	316.851	44.550	-368.398	1.690	1.592	5.074	4.563	-293.286	-358.528	-1.127	-293.984	-6.996	5.418	-287.691	-359.091	0.237	-288.068	-25.712	365.493	-279.040	-358.125	6.518	-285.437	-17.457	365.035	-281.485	-358.584	4.123	-283.528	-352.787	45.199	-352.985	-352.275	358.966	-354.186	
9.750	83.738	-3.009	-385.951	-9.777	-360.728	29.190	359.785	-354.230	-0.000	37.515	0.000	7.772	-27.320	0.556	-5.297	349.716	-374.486	-360.000	35.077	0.000	13.531	347.802	9.039	-3.043	1.117	-360.850	-6.116	2.192	-361.762	0.000	0.000	0.000	10.577	359.413	-362.784	4.385	-13.755	-65.325	-66.042	-30.388	-408.140	-353.279	355.834	-380.152	-357.534	5.000	-43.579	0.000	0.000	-45.620	-352.484	3.825	-53.915	-0.452	-1.204	-54.073	-339.062	356.546	-68.995	0.000	-0.000	-62.101	-346.654	359.676	-58.459	0.526	1.401	-56.115	-2.898	26.346	-15.577	-6.340	20.157	-350.826	13.103	364.126	-367.124	-347.291	364.003	-366.825	-347.863	327.637	-307.268	-297.078	317.233	44.297	-368.736	1.082	1.692	4.775	4.686	-294.103	-358.531	-0.870	-294.687	-7.078	5.581	-288.660	-359.035	0.049	-289.136	-25.878	365.150	-280.347	-358.307	6.438	-286.790	-17.630	365.030	-282.524	-358.665	3.901	-284.617	-352.802	45.226	-352.879	-352.327	358.906	-353.834	
9.705	83.746	-3.018	-385.865	-9.786	-360.717	29.115	359.808	-354.209	-0.000	37.474	0.000	7.759	-27.294	0.533	-5.251	349.773	-374.461	-360.000	35.091	-0.000	13.391	347.765	9.033	-3.030	1.117	-360.841	-6.089	2.191	-361.743	0.000	-0.000	-0.000	10.620	359.351	-362.758	4.737	-13.587	-65.009	-65.535	-29.952	-407.743	-352.418	355.155	-380.502	-357.428	4.920	-42.614	0.000	0.000	-44.569	-352.453	3.783	-53.214	-0.435	-1.104	-53.372	-339.266	356.385	-68.190	0.000	-0.000	-61.304	-346.675	359.638	-57.764	0.506	1.286	-55.375	-3.153	26.271	-15.537	-7.027	20.381	-350.543	13.228	364.027	-367.184	-347.299	363.947	-366.925	-347.859	327.750	-307.565	-297.733	317.606	44.099	-368.810	0.625	1.669	4.530	4.782	-294.792	-358.540	-0.652	-295.284	-7.142	5.690	-289.429	-358.989	-0.073	-289.972	-25.948	364.919	-281.351	-358.450	6.306	-287.856	-17.724	364.936	-283.344	-358.720	3.809	-285.458	-352.701	45.233	-352.743	-352.121	358.860	-353.638	
9.660	83.755	-3.028	-385.762	-9.788	-360.717	28.959	359.825	-354.207	-0.000	37.437	0.000	7.819	-27.269	0.488	-5.284	349.807	-374.438	-360.000	35.106	0.000	13.323	347.748	9.012	-3.019	1.118	-360.829	-6.066	2.195	-361.720	0.000	-0.000	-0.000	10.655	359.279	-362.732	5.063	-13.445	-64.681	-65.068	-29.528	-407.322	-352.038	354.649	-380.866	-357.336	4.849	-41.771	0.000	0.000	-43.673	-352.396	3.762	-52.618	-0.418	-1.022	-52.798	-339.522	356.189	-67.636	0.000	-0.000	-60.762	-346.657	359.626	-57.172	0.487	1.192	-54.747	-3.323	26.222	-15.511	-7.485	20.532	-350.359	13.337	363.930	-367.249	-347.323	363.905	-367.030	-347.831	327.851	-307.887	-298.338	317.968	43.875	-369.192	-0.019	1.730	4.223	4.897	-295.658	-358.560	-0.384	-296.033	-7.166	5.765	-290.388	-358.941	-0.176	-291.018	-25.984	364.575	-282.665	-358.627	6.172	-289.246	-17.750	364.769	-284.400	-358.786	3.705	-286.546	-352.500	45.230	-352.542	-351.697	358.804	-353.466	
